<svg width="37" height="37" viewBox="0 0 37 37" fill="none" xmlns="http://www.w3.org/2000/svg">
<g id="calendar-day" clip-path="url(#clip0_344_2208)">
<path id="Vector" d="M12.3333 18.5H9.25C7.54954 18.5 6.16667 19.8829 6.16667 21.5833V24.6667C6.16667 26.3671 7.54954 27.75 9.25 27.75H12.3333C14.0338 27.75 15.4167 26.3671 15.4167 24.6667V21.5833C15.4167 19.8829 14.0338 18.5 12.3333 18.5ZM9.25 24.6667V21.5833H12.3333V24.6667H9.25ZM29.2917 3.08333H27.75V1.54167C27.75 0.690667 27.0609 0 26.2083 0C25.3558 0 24.6667 0.690667 24.6667 1.54167V3.08333H12.3333V1.54167C12.3333 0.690667 11.6442 0 10.7917 0C9.93913 0 9.25 0.690667 9.25 1.54167V3.08333H7.70833C3.45796 3.08333 0 6.54129 0 10.7917V29.2917C0 33.542 3.45796 37 7.70833 37H29.2917C33.542 37 37 33.542 37 29.2917V10.7917C37 6.54129 33.542 3.08333 29.2917 3.08333ZM7.70833 6.16667H29.2917C31.8416 6.16667 33.9167 8.24175 33.9167 10.7917V12.3333H3.08333V10.7917C3.08333 8.24175 5.15842 6.16667 7.70833 6.16667ZM29.2917 33.9167H7.70833C5.15842 33.9167 3.08333 31.8416 3.08333 29.2917V15.4167H33.9167V29.2917C33.9167 31.8416 31.8416 33.9167 29.2917 33.9167Z" fill="black"/>
</g>
<defs>
<clipPath id="clip0_344_2208">
<rect width="37" height="37" fill="white"/>
</clipPath>
</defs>
</svg>
