<svg width="38" height="38" viewBox="0 0 38 38" fill="none" xmlns="http://www.w3.org/2000/svg">
<g id="gem" clip-path="url(#clip0_344_2211)">
<path id="Vector" d="M36.6494 14.9957L35.4033 13.3C34.5399 12.1251 33.4127 11.1691 32.1125 10.5092C30.8124 9.84916 29.3754 9.50351 27.9173 9.5H10.1064C8.67829 9.50373 7.27008 9.83529 5.99031 10.4691C4.71055 11.103 3.59338 12.0222 2.72492 13.1559L1.42501 14.8564C0.369685 16.2486 -0.12649 17.9854 0.03408 19.725C0.19465 21.4646 1.00034 23.0811 2.29267 24.2567L14.9435 36.4594C16.0546 37.4503 17.4922 37.9966 18.981 37.9937C20.5014 37.9907 21.9672 37.4269 23.0977 36.4103L35.663 24.3247C36.9627 23.1738 37.7848 21.5782 37.9673 19.8517C38.1499 18.1253 37.6797 16.393 36.6494 14.9957ZM32.8494 15.1652L34.0955 16.8657C34.2207 17.0397 34.3309 17.224 34.4248 17.4167H26.8391C26.7245 16.6584 26.527 15.9151 26.2501 15.2L25.2368 12.6667H27.9173C28.8775 12.6685 29.8239 12.8955 30.6805 13.3294C31.5371 13.7633 32.2799 14.3921 32.8494 15.1652ZM18.9842 31.806L14.5999 21.8785C14.4413 21.4586 14.3216 21.0251 14.2421 20.5833H23.6661C23.5997 20.9315 23.5065 21.2739 23.3874 21.6078L18.9842 31.806ZM14.4083 17.4167C14.4746 17.1328 14.5576 16.8531 14.6569 16.5791L16.2149 12.6667H21.8263L23.3098 16.3764C23.4401 16.7152 23.5459 17.0628 23.6265 17.4167H14.4083ZM5.24242 15.0749C5.8149 14.3281 6.5511 13.7227 7.39437 13.3052C8.23763 12.8876 9.16546 12.6692 10.1064 12.6667H12.7981L11.7167 15.4043C11.4558 16.0538 11.2611 16.728 11.1356 17.4167H3.55459C3.66319 17.1929 3.79422 16.9807 3.94567 16.7833L5.24242 15.0749ZM4.45076 21.9355C4.03771 21.5608 3.7132 21.0989 3.50076 20.5833H11.0564C11.1614 21.4364 11.3671 22.274 11.6692 23.0787L16.1453 33.212L4.45076 21.9355ZM21.8041 33.2722L26.3229 22.8C26.5852 22.0833 26.7679 21.34 26.8676 20.5833H34.5167C34.2926 21.1269 33.9502 21.6137 33.5144 22.0083L21.8041 33.2722Z" fill="black"/>
<path id="Vector_2" d="M19 6.33333C19.4199 6.33333 19.8227 6.16652 20.1196 5.86959C20.4165 5.57265 20.5833 5.16993 20.5833 4.75V1.58333C20.5833 1.16341 20.4165 0.76068 20.1196 0.463748C19.8227 0.166815 19.4199 0 19 0C18.5801 0 18.1774 0.166815 17.8804 0.463748C17.5835 0.76068 17.4167 1.16341 17.4167 1.58333V4.75C17.4167 5.16993 17.5835 5.57265 17.8804 5.86959C18.1774 6.16652 18.5801 6.33333 19 6.33333Z" fill="black"/>
<path id="Vector_3" d="M26.2089 6.17499C26.3959 6.26898 26.5996 6.32499 26.8083 6.33977C27.017 6.35456 27.2266 6.32783 27.4249 6.26114C27.6232 6.19444 27.8063 6.0891 27.9637 5.9512C28.121 5.81331 28.2495 5.64559 28.3417 5.45774L29.925 2.29107C30.1127 1.91524 30.1434 1.48023 30.0104 1.08175C29.8774 0.683265 29.5915 0.353947 29.2157 0.16624C28.8398 -0.0214669 28.4048 -0.0521864 28.0063 0.0808394C27.6079 0.213865 27.2785 0.499739 27.0908 0.875573L25.5075 4.04224C25.413 4.22822 25.3561 4.43106 25.3402 4.63909C25.3243 4.84712 25.3497 5.05624 25.4148 5.25443C25.48 5.45262 25.5837 5.63598 25.72 5.79396C25.8563 5.95194 26.0224 6.08143 26.2089 6.17499Z" fill="black"/>
<path id="Vector_4" d="M9.66625 5.45774C9.85395 5.83462 10.1837 6.1215 10.5829 6.25527C10.9821 6.38904 11.4182 6.35874 11.795 6.17103C12.1719 5.98333 12.4588 5.65359 12.5926 5.25436C12.7263 4.85514 12.696 4.41912 12.5083 4.04224L10.925 0.875573C10.8321 0.689479 10.7034 0.523514 10.5463 0.387153C10.3892 0.250793 10.2068 0.146707 10.0095 0.0808394C9.61101 -0.0521864 9.176 -0.0214669 8.80016 0.16624C8.42433 0.353947 8.13846 0.683265 8.00543 1.08175C7.8724 1.48023 7.90312 1.91524 8.09083 2.29107L9.66625 5.45774Z" fill="black"/>
</g>
<defs>
<clipPath id="clip0_344_2211">
<rect width="38" height="38" fill="white"/>
</clipPath>
</defs>
</svg>
