<svg width="129" height="23" viewBox="0 0 129 23" fill="none" xmlns="http://www.w3.org/2000/svg">
<g id="Group">
<path id="Vector" d="M0.461121 0.117642C4.07974 0.122356 7.69979 0.0680436 11.3167 0.150946C14.1047 0.214891 16.2892 2.10864 16.7595 4.69533C17.2917 7.62347 15.7724 10.1237 13.4286 10.7946C13.369 10.8116 13.3206 10.8668 13.2405 10.9227C15.4746 11.5622 16.8081 13.0409 17.1836 15.2564C17.8028 18.9117 15.7866 21.9152 11.9775 22.3402C11.1327 22.4343 10.2749 22.4319 9.42292 22.4363C6.43575 22.4522 3.44839 22.4517 0.461223 22.4574L0.461121 0.117642ZM5.27184 18.1924C5.33394 18.2137 5.39593 18.2536 5.45773 18.2536C6.95715 18.256 8.45924 18.3092 9.95538 18.2383C11.5036 18.1648 12.4242 17.2133 12.4652 15.8112C12.5065 14.4023 11.6562 13.3862 10.1399 13.2042C9.18148 13.0891 8.20254 13.1419 7.23271 13.1282C6.59008 13.1193 5.94715 13.1266 5.27184 13.1266V18.1924ZM5.23904 8.96979C6.63681 8.96979 7.96397 8.97215 9.29113 8.96774C9.5465 8.96682 9.80771 8.96897 10.0561 8.91896C10.9933 8.73082 11.699 8.25031 11.9444 7.27351C12.3358 5.71619 11.3432 4.37079 9.73188 4.29096C8.98268 4.25397 8.23041 4.28071 7.47957 4.27999C6.75138 4.27907 6.02298 4.27979 5.27214 4.27979C5.25718 4.44109 5.24027 4.53946 5.24017 4.63784C5.23843 6.05252 5.23904 7.46719 5.23904 8.96979ZM86.7456 22.8672C86.1798 22.7621 85.6083 22.6814 85.0495 22.5474C80.6743 21.4988 78.4449 17.733 78.8272 13.572C79.1474 10.0879 80.9037 7.54077 84.249 6.36158C88.9195 4.71521 94.3358 6.93801 95.1349 13.1524C95.2404 13.9735 95.2352 14.8087 95.2855 15.7111H83.2241C83.5037 17.2421 84.2758 18.3162 85.622 18.8871C87.8097 19.8149 89.8591 19.3524 91.7913 18.1088C91.9055 18.0353 92.0108 17.948 92.1218 17.869C92.1328 17.8612 92.1543 17.8679 92.2317 17.8679C92.8229 18.7381 93.4332 19.6367 94.1191 20.6465C93.4969 21.0345 92.923 21.4552 92.296 21.7702C91.1428 22.3497 89.9028 22.6569 88.6144 22.7642C88.4677 22.7764 88.3247 22.8318 88.18 22.8671L86.7456 22.8672ZM91.1224 12.7705C91.2063 10.7641 89.2947 9.23192 86.8745 9.32743C84.8612 9.40685 83.0716 11.1117 83.2864 12.7705H91.1224ZM104.064 22.8672C103.368 22.7271 102.661 22.6281 101.978 22.4398C98.7171 21.5403 96.4676 18.7829 96.1718 15.4127C95.8923 12.2338 96.8139 9.53976 99.3657 7.53431C103.233 4.4954 110.832 5.18475 112.342 12.375C112.45 12.8901 112.514 13.419 112.546 13.9447C112.581 14.5029 112.554 15.0651 112.554 15.7108H100.572C100.676 16.6097 101.025 17.3323 101.604 17.93C102.929 19.2979 104.583 19.5553 106.37 19.2417C107.509 19.0418 108.56 18.6093 109.506 17.7987L111.435 20.6264C110.933 20.9624 110.478 21.3178 109.978 21.5912C108.736 22.2708 107.392 22.6295 105.984 22.7612C105.82 22.7764 105.66 22.8308 105.499 22.867C105.02 22.8672 104.542 22.8672 104.064 22.8672ZM100.6 12.7676H108.444C108.545 10.8229 106.678 9.27814 104.333 9.32395C102.252 9.36442 100.45 11.0104 100.6 12.7676ZM24.7478 22.8672C24.2352 22.7623 23.7193 22.6714 23.2106 22.5501C20.0597 21.7991 18.1984 19.4405 18.1956 16.1984C18.1932 13.0907 18.1951 9.98297 18.1951 6.87529V6.31834H22.4542V6.91177C22.4542 9.84883 22.4628 12.7858 22.4503 15.7227C22.4445 17.0549 22.852 18.1831 24.1143 18.7628C25.4825 19.391 26.8835 19.3681 28.1492 18.4666C29.0763 17.8066 29.3383 16.7962 29.3403 15.7105C29.3459 12.7906 29.3423 9.87065 29.3423 6.95082V6.3087H33.5551L33.5553 6.88431C33.5553 9.95796 33.5567 13.0315 33.5548 16.1052C33.5526 19.8141 31.2442 22.3636 27.5446 22.7522C27.362 22.7715 27.1832 22.8278 27.0025 22.8668C26.2508 22.8672 25.4993 22.8672 24.7478 22.8672ZM64.9632 22.4061V0.132706H80.4553V2.2933C80.4553 2.77145 80.4232 3.25237 80.4643 3.72704C80.5051 4.19965 80.3153 4.29137 79.8804 4.28891C76.8237 4.27149 73.7667 4.27969 70.7099 4.27969H69.743V8.96979H70.3199C72.6254 8.96979 74.931 8.98301 77.2362 8.95893C77.7023 8.95411 77.8113 9.10219 77.8007 9.54232C77.7721 10.7159 77.7908 11.8905 77.7908 13.1229H69.7083V22.4061H64.9632ZM113.633 22.3974V21.8114C113.633 16.8268 113.633 11.8425 113.634 6.85787C113.634 6.20356 113.634 6.19783 114.31 6.20408C116.647 6.2256 118.994 6.12599 121.319 6.30604C124.633 6.56243 127.226 8.05479 128.454 11.3256C129.702 14.6493 128.751 18.4425 126.216 20.5206C124.722 21.7449 122.964 22.3478 121.071 22.416C118.668 22.503 116.259 22.4435 113.852 22.4452C113.803 22.4453 113.754 22.4246 113.633 22.3974ZM117.695 18.9789C118.512 18.9789 119.276 18.9791 120.04 18.9789C122.791 18.978 124.522 17.428 124.831 14.6914C125.052 12.7265 123.989 10.7722 122.296 10.0784C120.806 9.46741 119.248 9.79226 117.695 9.70587C117.695 12.8262 117.695 15.8598 117.695 18.9789ZM42.141 9.95653H34.9248V6.30163H47.9705C47.9705 6.99119 47.9359 7.68413 47.9807 8.37215C48.0219 9.00637 47.8289 9.49631 47.4285 9.99424C45.2588 12.6943 43.1233 15.4214 40.9767 18.1398C40.8615 18.2856 40.752 18.4359 40.5725 18.6728H48.0571V22.3979H34.8852C34.8852 21.3804 34.8703 20.3633 34.8994 19.3474C34.9044 19.173 35.0796 18.9912 35.2031 18.8341C37.4054 16.0292 39.6121 13.228 41.8166 10.4247C41.9083 10.3078 41.9866 10.1801 42.141 9.95653ZM49.2229 9.96063C49.2229 8.80726 49.2219 7.75002 49.2244 6.69268C49.2246 6.57606 49.2439 6.45945 49.2576 6.30819H62.263C62.263 7.29083 62.2738 8.25769 62.2516 9.22383C62.2483 9.36944 62.1046 9.52285 62.0018 9.65351C59.7624 12.4954 57.5194 15.3343 55.2784 18.1749C55.1677 18.3152 55.0689 18.465 54.8966 18.705H55.5494C57.6663 18.705 59.7833 18.7139 61.9004 18.6973C62.2937 18.6943 62.4405 18.7909 62.429 19.2101C62.4002 20.2644 62.4195 21.3202 62.4195 22.4072H49.2356C49.2356 21.3543 49.2272 20.3188 49.2463 19.2839C49.2485 19.1541 49.3847 19.0186 49.4774 18.9006C51.6278 16.1624 53.781 13.4266 55.9334 10.6898C56.0978 10.4807 56.2587 10.2688 56.4964 9.96052L49.2229 9.96063Z" fill="#504786"/>
</g>
</svg>
