<svg width="73" height="19" viewBox="0 0 73 19" fill="none" xmlns="http://www.w3.org/2000/svg">
<g id="Group 1386">
<path id="Vector" d="M44.4248 5.19613C43.2515 5.19613 42.3299 5.44782 41.4078 5.95025C41.4078 3.26821 41.4078 0.837866 41.492 0L35.8758 1.00534V1.50826L36.4624 1.59199C37.2161 1.75947 37.4687 2.17816 37.6348 3.18447C37.8037 5.19613 37.719 15.9248 37.6348 17.6852C39.1435 18.0207 40.7365 18.2724 42.3294 18.2724C46.7719 18.2724 49.4539 15.5061 49.4539 11.1473C49.4539 7.71117 47.2748 5.19613 44.4248 5.19613ZM42.4969 17.3498C42.1615 17.3498 41.7418 17.3498 41.4911 17.2665C41.4068 16.0932 41.3236 11.1473 41.4068 6.78909C41.9098 6.62113 42.2447 6.53739 42.6644 6.53739C44.5095 6.53739 45.5153 8.71652 45.5153 11.3981C45.5149 14.752 44.2573 17.3498 42.4969 17.3498ZM14.7524 0.334953H0V1.08908L0.83835 1.17282C1.92743 1.3403 2.34709 2.01069 2.51408 3.60316C2.76626 6.62064 2.68204 12.0694 2.51408 14.6668C2.34661 16.2597 1.92791 17.0143 0.83835 17.0971L0 17.2656V17.9359H9.47161V17.2656L8.46579 17.0971C7.37622 17.0139 6.95705 16.2597 6.78957 14.6668C6.70535 13.5767 6.62161 11.8163 6.62161 9.63764L8.63326 9.72138C9.89079 9.72138 10.477 10.7272 10.7287 12.1517H11.4833V6.20244H10.7287C10.4765 7.62744 9.89079 8.63278 8.63326 8.63278L6.62209 8.717C6.62209 5.867 6.70583 3.18496 6.79005 1.59248H9.72331C11.9871 1.59248 13.1604 3.017 13.9983 5.53205L14.8367 5.28035L14.7524 0.334953Z" fill="black"/>
<path id="Vector_2" d="M19.5304 5.02839C23.7216 5.02839 25.817 7.87839 25.817 11.65C25.817 15.2541 23.4699 18.2726 19.2787 18.2726C15.0879 18.2726 12.9925 15.4221 12.9925 11.65C12.9925 8.04587 15.3391 5.02839 19.5304 5.02839ZM19.2787 5.86674C17.4345 5.86674 16.9316 8.3813 16.9316 11.65C16.9316 14.835 17.7699 17.4333 19.4466 17.4333C21.3731 17.4333 21.877 14.9187 21.877 11.65C21.877 8.46504 21.0396 5.86674 19.2787 5.86674ZM50.543 11.7342C50.543 8.29757 52.7222 5.02839 56.9972 5.02839C60.5166 5.02839 62.1938 7.62718 62.1938 11.0633H54.3984C54.3141 14.1646 55.8229 16.4279 58.8409 16.4279C60.1821 16.4279 60.8525 16.0934 61.6913 15.5063L62.0258 15.925C61.1875 17.0983 59.3438 18.2726 56.9972 18.2726C53.2251 18.2721 50.543 15.59 50.543 11.7342ZM54.3984 10.1417L58.3379 10.0575C58.3379 8.3813 58.0862 5.86674 56.6617 5.86674C55.2372 5.86674 54.4816 8.21334 54.3984 10.1417ZM72.1697 5.69926C71.1639 5.2796 69.8231 5.02839 68.3144 5.02839C65.2137 5.02839 63.2848 6.87208 63.2848 9.05169C63.2848 11.2313 64.7083 12.1529 66.7224 12.8238C68.8173 13.5774 69.4044 14.1646 69.4044 15.1704C69.4044 16.1762 68.6498 17.0978 67.3086 17.0978C65.7166 17.0978 64.5423 16.1762 63.6207 13.6612L63.0336 13.8296L63.1178 17.5175C64.1236 17.9362 65.9673 18.2721 67.5603 18.2721C70.8295 18.2721 72.9253 16.5949 72.9253 13.9971C72.9253 12.2366 72.0028 11.2313 69.8236 10.3925C67.4761 9.47087 66.6387 8.88422 66.6387 7.79417C66.6387 6.7046 67.3942 5.94999 68.4001 5.94999C69.9078 5.94999 70.9137 6.87208 71.6693 9.13543L72.2554 8.96796L72.1697 5.69926ZM36.7132 5.36382C35.2886 4.52644 32.7736 4.94465 31.4328 7.96261L31.5161 5.02887L25.9008 6.11844V6.62135L26.4874 6.70509C27.2425 6.78931 27.577 7.208 27.6612 8.29805C27.8287 10.3097 27.7449 13.8306 27.6612 15.5905C27.577 16.5954 27.2425 17.0983 26.4874 17.1825L25.9008 17.2667V17.9371H33.6957V17.2667L32.6898 17.1825C31.852 17.0983 31.6003 16.5954 31.5161 15.5905C31.3486 13.9976 31.3486 10.8126 31.4328 8.80096C31.8515 8.21383 33.6957 7.7114 35.3719 8.80096L36.7132 5.36382Z" fill="black"/>
</g>
</svg>
