<svg width="111" height="28" viewBox="0 0 111 28" fill="none" xmlns="http://www.w3.org/2000/svg">
<g id="Imported-Layers">
<path id="Fill-1" d="M45.5984 18.9853C43.9507 23.5989 41.8819 26.0522 39.9046 26.0522C39.1357 26.0522 38.6597 25.5396 38.6597 24.6059C38.6597 23.8919 38.8977 22.6652 40.106 18.1981L40.637 16.1659H47.0997C47.5025 15.0491 47.8686 12.6507 47.8686 11.1495C47.8686 6.84706 46.4223 5.18103 43.9873 5.18103C42.9072 5.18103 41.8453 5.69366 40.7651 6.77383C39.5568 7.98216 38.4583 9.90451 37.3415 12.7606C36.1332 15.8546 35.4741 19.1501 35.4741 21.164C35.4741 24.8622 36.9387 27.1507 39.3188 27.1507C41.827 27.1507 44.3352 24.6608 46.2209 19.1867L45.5984 18.9853ZM42.9621 7.65262C43.3282 6.27951 43.6944 5.84012 44.3352 5.84012C44.8295 5.84012 45.1774 6.18797 45.1774 6.73721C45.1774 7.13999 45.0126 8.16524 44.7013 9.28203L43.0536 15.6166H40.8567L42.9621 7.65262Z" fill="#504786"/>
<path id="Fill-2" d="M13.4312 5.19945L11.5271 6.97534C11.0511 5.767 10.2639 5.12622 8.81755 5.12622C6.23611 5.12622 4.20392 7.61612 4.20392 10.9665C4.20392 12.4861 4.57008 13.9873 5.57702 16.8434C6.6572 19.8642 7.1149 21.4204 7.1149 23.1597C7.1149 25.1369 6.27273 26.0157 5.3024 26.0157C4.05745 26.0157 3.12374 24.8989 3.12374 22.3175C3.12374 20.6698 3.16036 18.9854 3.21529 16.88L2.81251 16.7701L0.176147 26.8945L0.578924 27.0226L2.68435 24.9355C3.16036 26.1805 4.35038 27.0776 6.03472 27.0776C8.28661 27.0776 10.8314 24.7158 10.8314 21.2373C10.8314 19.6628 10.392 18.0517 9.33017 15.0492C8.28661 12.1565 7.88384 10.6736 7.88384 9.22723C7.88384 7.21334 8.65278 6.05993 9.65972 6.05993C10.63 6.05993 11.2708 7.39642 11.2708 10.1243C11.2708 11.7354 11.1976 12.8888 11.1427 14.1887L11.5454 14.2986L13.8523 5.29099L13.4312 5.19945Z" fill="#504786"/>
<path id="Fill-3" d="M21.1572 5.16284C20.077 5.16284 19.0151 5.67547 17.935 6.73734C16.7266 7.94567 15.6281 9.86801 14.5113 12.7241C13.303 15.8181 12.6439 19.1136 12.6439 21.1275C12.6439 24.8257 14.1086 27.1142 16.4886 27.1142C18.9968 27.1142 21.505 24.6243 23.3908 19.1502L22.75 18.9854C21.1022 23.5991 19.0334 26.0523 17.0562 26.0523C16.2872 26.0523 15.8112 25.5397 15.8112 24.606C15.8112 23.892 16.0492 22.6653 17.2576 18.1982L17.7885 16.166H24.2512C24.654 15.0492 25.0202 12.6508 25.0202 11.1496C25.0385 6.82888 23.6105 5.16284 21.1572 5.16284ZM21.8712 9.26385L20.2235 15.5984H18.0082L20.1136 7.63443C20.4798 6.26132 20.8459 5.82193 21.4867 5.82193C21.981 5.82193 22.3289 6.2064 22.3289 6.73734C22.3289 7.15842 22.1641 8.14706 21.8712 9.26385Z" fill="#504786"/>
<path id="Fill-4" d="M38.0006 6.88382C38.44 6.44443 38.8977 6.1515 39.5751 6.05996L39.7399 5.32764H35.0896L34.9248 6.02334C35.6938 6.22473 36.0233 6.51766 36.0233 7.12183C36.0233 7.92738 35.4924 9.44695 34.1559 12.303L30.2746 20.6149H30.1464L32.3617 6.16981H33.4968L33.6616 5.32764H27.0158L26.851 6.16981H28.0593L25.3497 26.7114H28.1692L35.4924 11.2228C36.8655 8.33016 37.5063 7.37814 38.0006 6.88382Z" fill="#504786"/>
<path id="Fill-5" d="M61.7828 7.8175C61.7828 6.27963 60.8857 5.12622 59.1647 5.12622C57.5902 5.12622 56.4551 5.80362 55.3566 7.89074L55.9974 5.3093H50.8345L50.6698 6.15147H51.933L46.6054 26.1622H45.4337L45.2689 26.7114H51.3289L51.4936 26.1622H50.6881L54.8806 10.6736C55.6496 7.85412 56.5466 6.86549 57.2607 6.86549C57.7001 6.86549 57.9381 7.1218 57.9381 7.63442C57.9381 8.20197 57.8099 8.80614 56.7663 12.6325L53.123 26.1622H52.3175L52.1527 26.7114H58.2859L58.4507 26.1622H57.2057L60.8307 12.5959C61.5814 9.70323 61.7828 8.82445 61.7828 7.8175Z" fill="#504786"/>
<path id="Fill-6" d="M93.8401 18.9853C92.1924 23.5989 90.1236 26.0522 88.1463 26.0522C87.3774 26.0522 86.9014 25.5396 86.9014 24.6059C86.9014 23.8919 87.1394 22.6652 88.3477 18.1981L88.8787 16.1659H95.3414C95.7442 15.0491 96.1104 12.6507 96.1104 11.1495C96.1104 6.84706 94.664 5.18103 92.229 5.18103C91.1489 5.18103 90.087 5.69366 89.0068 6.77383C87.7985 7.98216 86.7 9.90451 85.5832 12.7606C84.3749 15.8546 83.7158 19.1501 83.7158 21.164C83.7158 24.8622 85.1804 27.1507 87.5605 27.1507C90.0687 27.1507 92.5769 24.6608 94.4626 19.1867L93.8401 18.9853ZM91.2038 7.65262C91.57 6.27951 91.9361 5.84012 92.5769 5.84012C93.0712 5.84012 93.4191 6.18797 93.4191 6.73721C93.4191 7.13999 93.2543 8.16524 92.9431 9.28203L91.2953 15.6166H89.0801L91.2038 7.65262Z" fill="#504786"/>
<path id="Fill-7" d="M70.3143 6.15151H74.0675L74.2322 5.60227H70.5157L72.017 0.0732339L71.6874 0C70.0214 2.92929 67.2385 5.10795 64.291 5.74873L64.2177 6.15151H66.2316L63.3206 16.5688C62.0208 21.2007 61.6546 22.9766 61.6546 23.892C61.6546 25.9059 62.8263 27.2973 64.6754 27.2973C66.9456 27.2973 68.5201 25.8876 70.2411 19.2418L69.6369 19.1502C68.337 24.0934 67.1287 25.9791 66.0485 25.9791C65.6457 25.9791 65.4444 25.7411 65.4444 25.2468C65.4444 24.7708 65.6091 23.8737 67.7146 15.9829L70.3143 6.15151Z" fill="#504786"/>
<path id="Fill-8" d="M110.024 7.8175C110.024 6.27963 109.127 5.12622 107.406 5.12622C105.832 5.12622 104.697 5.80362 103.598 7.89074L104.239 5.3093H99.0763L98.9115 6.15147H100.175L94.8471 26.1622H93.6754L93.5106 26.7114H99.5706L99.7353 26.1622H98.9298L103.122 10.6736C103.891 7.85412 104.788 6.86549 105.502 6.86549C105.942 6.86549 106.18 7.1218 106.18 7.63442C106.18 8.20197 106.052 8.80614 105.008 12.6325L101.365 26.1622H100.559L100.394 26.7114H106.528L106.692 26.1622H105.447L109.072 12.5959C109.823 9.70323 110.024 8.82445 110.024 7.8175Z" fill="#504786"/>
<path id="Fill-9" d="M76.5757 16.1477H83.0384C83.4412 15.0309 83.8074 12.6325 83.8074 11.1313C83.8074 6.82888 82.361 5.16284 79.926 5.16284C78.8459 5.16284 77.784 5.67547 76.7038 6.75564C75.4955 7.96398 74.397 9.88632 73.2802 12.7424C72.0719 15.8364 71.4128 19.1319 71.4128 21.1458C71.4128 24.844 72.8774 27.1325 75.2575 27.1325C77.7657 27.1325 80.2739 24.6426 82.1596 19.1685L81.5189 19.0037C79.8711 23.5991 77.8023 26.0706 75.825 26.0706C75.0561 26.0706 74.5801 25.558 74.5801 24.6243C74.5801 23.9103 74.8181 22.6836 76.0264 18.2165L76.5757 16.1477ZM78.8825 7.65274C79.2487 6.27963 79.6148 5.84024 80.2556 5.84024C80.7499 5.84024 81.0978 6.18809 81.0978 6.73734C81.0978 7.14011 80.933 8.16536 80.6218 9.28215L78.974 15.6167H76.7588L78.8825 7.65274Z" fill="#504786"/>
</g>
</svg>
