<svg width="37" height="34" viewBox="0 0 37 34" fill="none" xmlns="http://www.w3.org/2000/svg">
<path id="Vector" d="M29.2917 6.18182H26.0896C25.5716 3.24082 23.3871 0.812909 20.4255 0.0494545C19.61 -0.162273 18.7621 0.335364 18.5478 1.16064C18.335 1.98745 18.833 2.82973 19.6578 3.04145C21.699 3.56845 23.125 5.41527 23.125 7.53255V24.7273H6.16667C4.46621 24.7273 3.08333 23.341 3.08333 21.6364V15.4545H6.9375C7.79004 15.4545 8.47917 14.7622 8.47917 13.9091C8.47917 13.056 7.79004 12.3636 6.9375 12.3636H3.08333C1.38287 12.3636 0 13.7499 0 15.4545V21.6364C0 24.5418 2.01033 26.9852 4.70979 27.6435C4.65429 27.9542 4.625 28.271 4.625 28.5909C4.625 31.5736 7.04542 34 10.0208 34C12.9962 34 15.4167 31.5736 15.4167 28.5909C15.4167 28.3297 15.3966 28.0732 15.3596 27.8182H21.6404C21.6034 28.0732 21.5833 28.3297 21.5833 28.5909C21.5833 31.5736 24.0037 34 26.9792 34C29.9546 34 32.375 31.5736 32.375 28.5909C32.375 28.271 32.3457 27.9542 32.2902 27.6435C34.9897 26.9852 37 24.5418 37 21.6364V13.9091C37 9.64827 33.542 6.18182 29.2917 6.18182ZM33.9167 13.9091V15.4545H26.2083V9.27273H29.2917C31.8416 9.27273 33.9167 11.3529 33.9167 13.9091ZM12.3333 28.5909C12.3333 29.869 11.2958 30.9091 10.0208 30.9091C8.74587 30.9091 7.70833 29.869 7.70833 28.5909C7.70833 28.2988 7.76538 28.0407 7.84862 27.8182H12.1946C12.2778 28.0407 12.3349 28.2988 12.3349 28.5909H12.3333ZM26.9792 30.9091C25.7042 30.9091 24.6667 29.869 24.6667 28.5909C24.6667 28.2988 24.7237 28.0407 24.807 27.8182H29.1529C29.2362 28.0407 29.2932 28.2988 29.2932 28.5909C29.2932 29.869 28.2541 30.9091 26.9792 30.9091ZM30.8333 24.7273H26.2083V18.5455H33.9167V21.6364C33.9167 23.341 32.5338 24.7273 30.8333 24.7273ZM0 1.54545C0 0.692364 0.689125 0 1.54167 0H14.1124C14.965 0 15.6541 0.692364 15.6541 1.54545C15.6541 2.39855 14.965 3.09091 14.1124 3.09091H1.54167C0.689125 3.09091 0 2.39855 0 1.54545ZM0 7.72727C0 6.87418 0.689125 6.18182 1.54167 6.18182H11.0291C11.8816 6.18182 12.5708 6.87418 12.5708 7.72727C12.5708 8.58036 11.8816 9.27273 11.0291 9.27273H1.54167C0.689125 9.27273 0 8.58036 0 7.72727Z" fill="black"/>
</svg>
